<svg width="383" height="298" viewBox="0 0 383 298" fill="none" xmlns="http://www.w3.org/2000/svg">
  <path
    d="M0 12C0 5.37258 5.37258 0 12 0H371C377.627 0 383 5.37258 383 12V117C383 123.627 377.627 129 371 129H12C5.37259 129 0 123.627 0 117V12Z"
    fill="#17171C" />
  <g filter="url(#filter0_f_2030_6295)">
    <circle cx="31" cy="64.5" r="7" fill="#FB9464" />
  </g>
  <circle cx="31" cy="64.5" r="6" fill="#FA611A" />
  <path
    d="M85.2003 72H61.9043V32.8H68.3443V66.288H85.2003V72ZM86.9923 62.928V57.664L105.864 32.8H113.144V57.552H119.08V62.928H113.144V72H107.04V62.928H86.9923ZM107.04 39.576L93.3763 57.552H107.04V39.576Z"
    fill="#EDEDED" />
  <path
    d="M67.756 99H59.314V97.722L64.066 93.474C65.218 92.448 66.118 91.476 66.118 90.126C66.118 88.542 65.074 87.642 63.49 87.642C61.942 87.642 60.898 88.722 60.898 90.45V90.684H59.386V90.36C59.386 87.984 61.006 86.292 63.49 86.292C66.118 86.292 67.666 87.786 67.666 90.054C67.666 91.926 66.496 93.132 65.038 94.41L61.402 97.614H67.756V99ZM77.6221 99H76.1101V95.922H69.8641V94.572L75.9301 86.4H77.6221V94.536H79.4941V95.922H77.6221V99ZM76.1101 88.398L71.5561 94.536H76.1101V88.398ZM85.8862 99.108C82.9882 99.108 81.2242 96.696 81.2242 92.7C81.2242 88.632 82.8622 86.292 85.8862 86.292C88.0642 86.292 89.6662 87.57 90.1342 90.504H88.4782C88.1362 88.56 87.1822 87.732 85.8502 87.732C83.8162 87.732 82.8262 89.442 82.8262 92.7C82.8262 95.958 83.8882 97.668 85.9042 97.668C87.5962 97.668 88.6402 96.282 88.6402 94.05V93.618H86.1202V92.178H90.1702V99H88.8202L88.7122 97.344C88.1362 98.496 87.1822 99.108 85.8862 99.108ZM97.1203 99H93.0703V86.4H96.9943C99.6763 86.4 101.026 87.696 101.026 89.73C101.026 91.17 100.234 92.052 99.0463 92.466C100.378 92.718 101.548 93.582 101.548 95.4C101.548 97.632 100.108 99 97.1203 99ZM94.6363 87.822V91.872H97.0663C98.6863 91.872 99.4603 91.116 99.4603 89.838C99.4603 88.578 98.7043 87.822 97.0663 87.822H94.6363ZM94.6363 93.276V97.578H97.1203C99.0643 97.578 99.9463 96.768 99.9463 95.472C99.9463 94.05 98.9923 93.276 97.1203 93.276H94.6363Z"
    fill="#AAAAB2" />
  <rect x="300" y="49.5" width="59" height="30" rx="15" fill="#29A383" />
  <path
    d="M317.026 69.5V59.7H323.116V60.82H318.244V64.096H322.276V65.216H318.244V69.5H317.026ZM327.135 62.36H327.457V63.48H326.883C325.385 63.48 324.979 64.726 324.979 65.86V69.5H323.831V62.36H324.825L324.979 63.438C325.315 62.892 325.861 62.36 327.135 62.36ZM331.332 69.584C329.19 69.584 327.79 68.114 327.79 65.93C327.79 63.76 329.162 62.276 331.178 62.276C333.194 62.276 334.51 63.55 334.566 65.664C334.566 65.818 334.552 65.986 334.538 66.154H328.994V66.252C329.036 67.61 329.89 68.562 331.248 68.562C332.256 68.562 333.04 68.03 333.278 67.106H334.44C334.16 68.534 332.984 69.584 331.332 69.584ZM329.064 65.202H333.334C333.222 63.97 332.382 63.284 331.192 63.284C330.142 63.284 329.176 64.04 329.064 65.202ZM339.166 69.584C337.024 69.584 335.624 68.114 335.624 65.93C335.624 63.76 336.996 62.276 339.012 62.276C341.028 62.276 342.344 63.55 342.4 65.664C342.4 65.818 342.386 65.986 342.372 66.154H336.828V66.252C336.87 67.61 337.724 68.562 339.082 68.562C340.09 68.562 340.874 68.03 341.112 67.106H342.274C341.994 68.534 340.818 69.584 339.166 69.584ZM336.898 65.202H341.168C341.056 63.97 340.216 63.284 339.026 63.284C337.976 63.284 337.01 64.04 336.898 65.202Z"
    fill="black" />
  <path
    d="M0 181C0 174.373 5.37258 169 12 169H371C377.627 169 383 174.373 383 181V286C383 292.627 377.627 298 371 298H12C5.37259 298 0 292.627 0 286V181Z"
    fill="#17171C" />
  <g filter="url(#filter1_f_2030_6295)">
    <circle cx="31" cy="233.5" r="7" fill="#FB9464" />
  </g>
  <circle cx="31" cy="233.5" r="6" fill="#FA611A" />
  <path
    d="M61.7363 241V201.8H68.1763V218.264H86.3763V201.8H92.8163V241H86.3763V223.976H68.1763V241H61.7363ZM105.675 205.776V201.8H111.779V241H105.563V214.12C105.003 214.456 104.163 214.624 103.099 214.624H96.7149V209.304H102.819C104.835 209.304 105.675 207.848 105.675 205.776ZM117.594 222.296V220.504C117.594 209.136 123.922 201.464 133.05 201.464C142.122 201.464 148.45 209.136 148.45 220.504V222.296C148.45 234.112 142.122 241.336 133.05 241.336C123.922 241.336 117.594 234.112 117.594 222.296ZM142.234 222.072V220.728C142.234 211.992 138.538 206.896 133.05 206.896C127.506 206.896 123.81 211.992 123.81 220.728V222.072C123.81 230.864 127.506 235.904 133.05 235.904C138.538 235.904 142.234 230.864 142.234 222.072ZM152.813 222.296V220.504C152.813 209.136 159.141 201.464 168.269 201.464C177.341 201.464 183.669 209.136 183.669 220.504V222.296C183.669 234.112 177.341 241.336 168.269 241.336C159.141 241.336 152.813 234.112 152.813 222.296ZM177.453 222.072V220.728C177.453 211.992 173.757 206.896 168.269 206.896C162.725 206.896 159.029 211.992 159.029 220.728V222.072C159.029 230.864 162.725 235.904 168.269 235.904C173.757 235.904 177.453 230.864 177.453 222.072Z"
    fill="#EDEDED" />
  <path
    d="M65.578 261.484C66.964 261.808 68.044 262.906 68.044 264.616C68.044 266.65 66.352 268.108 63.58 268.108C60.808 268.108 59.116 266.65 59.116 264.616C59.116 262.978 60.124 261.826 61.564 261.484C60.394 261.214 59.458 260.134 59.458 258.64C59.458 256.66 61.078 255.292 63.58 255.292C66.082 255.292 67.702 256.66 67.702 258.64C67.702 260.08 66.766 261.214 65.578 261.484ZM61.006 258.64C61.006 259.882 62.032 260.71 63.58 260.71C65.128 260.71 66.154 259.882 66.154 258.64C66.154 257.416 65.128 256.588 63.58 256.588C62.032 256.588 61.006 257.416 61.006 258.64ZM63.58 266.812C65.308 266.812 66.496 265.858 66.496 264.508C66.496 263.176 65.308 262.222 63.58 262.222C61.852 262.222 60.664 263.176 60.664 264.508C60.664 265.858 61.87 266.812 63.58 266.812ZM74.7421 255.292C77.4961 255.292 79.2061 257.578 79.2061 261.412V261.988C79.2061 265.822 77.4961 268.108 74.7421 268.108C71.9881 268.108 70.2781 265.822 70.2781 261.988V261.412C70.2781 257.578 71.9881 255.292 74.7421 255.292ZM71.7721 261.466V261.934C71.7721 262.636 71.8261 263.266 71.9341 263.806L77.0641 258.154C76.5601 257.164 75.7681 256.642 74.7421 256.642C72.8701 256.642 71.7721 258.406 71.7721 261.466ZM77.7121 261.934V261.466C77.7121 260.764 77.6581 260.134 77.5501 259.576L72.4201 265.264C72.9421 266.218 73.7341 266.74 74.7421 266.74C76.6141 266.74 77.7121 264.994 77.7121 261.934ZM85.8862 268.108C82.9882 268.108 81.2242 265.696 81.2242 261.7C81.2242 257.632 82.8622 255.292 85.8862 255.292C88.0642 255.292 89.6662 256.57 90.1342 259.504H88.4782C88.1362 257.56 87.1822 256.732 85.8502 256.732C83.8162 256.732 82.8262 258.442 82.8262 261.7C82.8262 264.958 83.8882 266.668 85.9042 266.668C87.5962 266.668 88.6402 265.282 88.6402 263.05V262.618H86.1202V261.178H90.1702V268H88.8202L88.7122 266.344C88.1362 267.496 87.1822 268.108 85.8862 268.108ZM97.1203 268H93.0703V255.4H96.9943C99.6763 255.4 101.026 256.696 101.026 258.73C101.026 260.17 100.234 261.052 99.0463 261.466C100.378 261.718 101.548 262.582 101.548 264.4C101.548 266.632 100.108 268 97.1203 268ZM94.6363 256.822V260.872H97.0663C98.6863 260.872 99.4603 260.116 99.4603 258.838C99.4603 257.578 98.7043 256.822 97.0663 256.822H94.6363ZM94.6363 262.276V266.578H97.1203C99.0643 266.578 99.9463 265.768 99.9463 264.472C99.9463 263.05 98.9923 262.276 97.1203 262.276H94.6363Z"
    fill="#AAAAB2" />
  <rect x="243" y="218.5" width="116" height="30" rx="15" fill="#2A2A32" />
  <path
    d="M264.228 238.584C261.414 238.584 259.65 236.596 259.65 233.6C259.65 230.632 261.484 228.616 264.326 228.616C266.496 228.616 268.078 229.876 268.442 231.906H267.154C266.776 230.548 265.74 229.736 264.27 229.736C262.212 229.736 260.896 231.332 260.896 233.6C260.896 235.854 262.156 237.464 264.214 237.464C265.726 237.464 266.776 236.666 267.14 235.294H268.428C268.064 237.324 266.44 238.584 264.228 238.584ZM273.02 238.584C270.934 238.584 269.478 237.1 269.478 234.93C269.478 232.76 270.934 231.276 273.02 231.276C275.106 231.276 276.562 232.76 276.562 234.93C276.562 237.1 275.106 238.584 273.02 238.584ZM273.02 237.562C274.434 237.562 275.386 236.456 275.386 234.93C275.386 233.404 274.434 232.298 273.02 232.298C271.606 232.298 270.654 233.404 270.654 234.93C270.654 236.456 271.606 237.562 273.02 237.562ZM285.845 231.276C287.329 231.276 288.547 232.13 288.547 234.384V238.5H287.399V234.454C287.399 233.054 286.783 232.326 285.705 232.326C284.515 232.326 283.787 233.222 283.787 234.678V238.5H282.639V234.454C282.639 233.054 282.009 232.326 280.917 232.326C279.741 232.326 279.027 233.306 279.027 234.734V238.5H277.879V231.36H278.873L279.027 232.34C279.405 231.822 280.007 231.276 281.113 231.276C282.107 231.276 282.961 231.724 283.367 232.634C283.801 231.864 284.571 231.276 285.845 231.276ZM290.607 230.156C290.187 230.156 289.865 229.848 289.865 229.414C289.865 228.98 290.187 228.672 290.607 228.672C291.027 228.672 291.349 228.98 291.349 229.414C291.349 229.848 291.027 230.156 290.607 230.156ZM290.019 238.5V231.36H291.167V238.5H290.019ZM296.24 231.276C297.85 231.276 299.124 232.158 299.124 234.524V238.5H297.976V234.594C297.976 233.11 297.29 232.326 296.044 232.326C294.7 232.326 293.888 233.32 293.888 234.93V238.5H292.74V231.36H293.734L293.888 232.326C294.308 231.78 295.036 231.276 296.24 231.276ZM306.216 232.592L306.37 231.36H307.364V238.15C307.364 240.208 306.272 241.384 303.822 241.384C302.002 241.384 300.728 240.53 300.546 238.962H301.722C301.918 239.858 302.716 240.362 303.906 240.362C305.404 240.362 306.216 239.662 306.216 238.108V237.268C305.74 238.08 304.97 238.584 303.766 238.584C301.792 238.584 300.336 237.254 300.336 234.93C300.336 232.746 301.792 231.276 303.766 231.276C304.97 231.276 305.768 231.794 306.216 232.592ZM303.878 237.562C305.278 237.562 306.23 236.484 306.23 234.958C306.23 233.39 305.278 232.298 303.878 232.298C302.464 232.298 301.512 233.376 301.512 234.93C301.512 236.484 302.464 237.562 303.878 237.562ZM312.298 236.148H313.474C313.516 236.988 314.258 237.604 315.448 237.604C316.456 237.604 317.17 237.17 317.17 236.512C317.17 235.616 316.386 235.546 315.322 235.42C313.726 235.224 312.452 234.902 312.452 233.418C312.452 232.116 313.642 231.262 315.252 231.276C316.876 231.29 318.052 232.046 318.164 233.53H316.988C316.904 232.802 316.232 232.256 315.252 232.256C314.258 232.256 313.586 232.676 313.586 233.334C313.586 234.118 314.342 234.216 315.378 234.342C317.002 234.538 318.304 234.846 318.304 236.428C318.304 237.758 317.03 238.584 315.448 238.584C313.6 238.584 312.326 237.716 312.298 236.148ZM322.868 238.584C320.782 238.584 319.326 237.1 319.326 234.93C319.326 232.76 320.782 231.276 322.868 231.276C324.954 231.276 326.41 232.76 326.41 234.93C326.41 237.1 324.954 238.584 322.868 238.584ZM322.868 237.562C324.282 237.562 325.234 236.456 325.234 234.93C325.234 233.404 324.282 232.298 322.868 232.298C321.454 232.298 320.502 233.404 320.502 234.93C320.502 236.456 321.454 237.562 322.868 237.562ZM331.016 238.584C328.93 238.584 327.474 237.1 327.474 234.93C327.474 232.76 328.93 231.276 331.016 231.276C333.102 231.276 334.558 232.76 334.558 234.93C334.558 237.1 333.102 238.584 331.016 238.584ZM331.016 237.562C332.43 237.562 333.382 236.456 333.382 234.93C333.382 233.404 332.43 232.298 331.016 232.298C329.602 232.298 328.65 233.404 328.65 234.93C328.65 236.456 329.602 237.562 331.016 237.562ZM339.375 231.276C340.985 231.276 342.259 232.158 342.259 234.524V238.5H341.111V234.594C341.111 233.11 340.425 232.326 339.179 232.326C337.835 232.326 337.023 233.32 337.023 234.93V238.5H335.875V231.36H336.869L337.023 232.326C337.443 231.78 338.171 231.276 339.375 231.276Z"
    fill="#EDEDED" />
  <defs>
    <filter id="filter0_f_2030_6295" x="14" y="47.5" width="34" height="34"
      filterUnits="userSpaceOnUse" color-interpolation-filters="sRGB">
      <feFlood flood-opacity="0" result="BackgroundImageFix" />
      <feBlend mode="normal" in="SourceGraphic" in2="BackgroundImageFix" result="shape" />
      <feGaussianBlur stdDeviation="5" result="effect1_foregroundBlur_2030_6295" />
    </filter>
    <filter id="filter1_f_2030_6295" x="14" y="216.5" width="34" height="34"
      filterUnits="userSpaceOnUse" color-interpolation-filters="sRGB">
      <feFlood flood-opacity="0" result="BackgroundImageFix" />
      <feBlend mode="normal" in="SourceGraphic" in2="BackgroundImageFix" result="shape" />
      <feGaussianBlur stdDeviation="5" result="effect1_foregroundBlur_2030_6295" />
    </filter>
  </defs>
</svg>
  
